<svg id="Warstwa_1" data-name="Warstwa 1" xmlns="http://www.w3.org/2000/svg" viewBox="0 0 210 210">
    <defs>
        <style>.cls-1{fill:#fff;}</style>
    </defs>
    <polygon class="cls-1"
        points="113.4 15.27 113.4 3.79 91.18 3.79 91.18 14.55 91.18 15.26 90.46 15.26 77.56 15.26 76.84 15.26 76.84 14.55 76.84 3.79 53.91 3.79 53.91 14.55 53.91 15.26 53.19 15.26 40.29 15.26 39.57 15.26 39.57 14.55 39.57 3.79 17.35 3.79 17.35 15.27 25.24 15.27 25.95 15.27 25.95 15.99 25.95 25.3 104.8 25.3 104.8 15.99 104.8 15.27 105.52 15.27 113.4 15.27" />
    <rect class="cls-1" x="88.31" y="71.89" width="11.47" height="11.47" />
    <rect class="cls-1" x="65.38" y="71.89" width="11.47" height="11.47" />
    <rect class="cls-1" x="76.84" y="60.42" width="11.47" height="11.47" />
    <rect class="cls-1" x="88.31" y="146.43" width="11.47" height="11.47" />
    <rect class="cls-1" x="65.38" y="146.43" width="11.47" height="11.47" />
    <rect class="cls-1" x="76.84" y="134.96" width="11.47" height="11.47" />
    <path class="cls-1"
        d="M76.85,167.48a36.63,36.63,0,0,1-11.47,1.88,17.2,17.2,0,1,1,0-34.4V123.49a28.67,28.67,0,1,0,0,57.34,51,51,0,0,0,22.93-5.73V157.9H76.84S76.85,167.15,76.85,167.48Z" />
    <path class="cls-1"
        d="M88.31,83.35H76.84V98.67a40.25,40.25,0,0,1-14.33,1.89A11.48,11.48,0,0,1,51,89.09V60.42H39.57c0,4.34,0,24.82,0,28.67A22.93,22.93,0,0,0,62.51,112a52.15,52.15,0,0,0,25.8-5.73v-8.6h0Z" />
    <path class="cls-1"
        d="M65.38,206.21A62.65,62.65,0,0,1,2.73,143.56V40.78H128V143.56a62.65,62.65,0,0,1-62.64,62.65ZM7.61,45.65v97.91a57.77,57.77,0,0,0,115.54,0V45.65Z" />
</svg>